BenchTwelve---0_xx0_93.ufo
<glyph name="exclam" format="1">
  <advance width="552"/>
  <unicode hex="0021"/>
  <outline>
    <contour>
      <point x="250" y="523" type="curve" smooth="yes"/>
      <point x="304" y="523" type="line" smooth="yes"/>
      <point x="320" y="523"/>
      <point x="328" y="557"/>
      <point x="329" y="599" type="curve" smooth="yes"/>
      <point x="375" y="1451" type="line" smooth="yes"/>
      <point x="378" y="1494"/>
      <point x="365" y="1529"/>
      <point x="350" y="1529" type="curve" smooth="yes"/>
      <point x="204" y="1529" type="line" smooth="yes"/>
      <point x="189" y="1529"/>
      <point x="177" y="1496"/>
      <point x="179" y="1453" type="curve" smooth="yes"/>
      <point x="224" y="599" type="line" smooth="yes"/>
      <point x="226" y="557"/>
      <point x="235" y="523"/>
    </contour>
    <contour>
      <point x="277" y="0" type="curve" smooth="yes"/>
      <point x="353" y="0"/>
      <point x="389" y="95"/>
      <point x="389" y="188" type="curve" smooth="yes"/>
      <point x="389" y="280"/>
      <point x="352" y="374"/>
      <point x="277" y="374" type="curve" smooth="yes"/>
      <point x="203" y="374"/>
      <point x="164" y="283"/>
      <point x="164" y="188" type="curve" smooth="yes"/>
      <point x="164" y="94"/>
      <point x="202" y="0"/>
    </contour>
  </outline>
</glyph>
<glyph name="numbersign" format="1">
  <advance width="858"/>
  <unicode hex="0023"/>
  <outline>
    <contour>
      <point x="203" y="-205" type="curve" smooth="yes"/>
      <point x="278" y="-205" type="line" smooth="yes"/>
      <point x="286" y="-205"/>
      <point x="293" y="-191"/>
      <point x="294" y="-170" type="curve" smooth="yes"/>
      <point x="338" y="364" type="line"/>
      <point x="463" y="364" type="line"/>
      <point x="419" y="-170" type="line" smooth="yes"/>
      <point x="417" y="-187"/>
      <point x="422" y="-205"/>
      <point x="427" y="-205" type="curve" smooth="yes"/>
      <point x="501" y="-205" type="line" smooth="yes"/>
      <point x="509" y="-205"/>
      <point x="516" y="-191"/>
      <point x="517" y="-170" type="curve" smooth="yes"/>
      <point x="562" y="364" type="line"/>
      <point x="645" y="364" type="line" smooth="yes"/>
      <point x="660" y="364"/>
      <point x="669" y="378"/>
      <point x="669" y="421" type="curve" smooth="yes"/>
      <point x="669" y="523" type="line" smooth="yes"/>
      <point x="669" y="566"/>
      <point x="660" y="580"/>
      <point x="645" y="580" type="curve" smooth="yes"/>
      <point x="579" y="580" type="line"/>
      <point x="596" y="788" type="line"/>
      <point x="671" y="788" type="line" smooth="yes"/>
      <point x="685" y="788"/>
      <point x="694" y="802"/>
      <point x="694" y="845" type="curve" smooth="yes"/>
      <point x="694" y="949" type="line" smooth="yes"/>
      <point x="694" y="992"/>
      <point x="685" y="1006"/>
      <point x="671" y="1006" type="curve" smooth="yes"/>
      <point x="612" y="1006" type="line"/>
      <point x="661" y="1612" type="line" smooth="yes"/>
      <point x="663" y="1629"/>
      <point x="659" y="1647"/>
      <point x="653" y="1647" type="curve" smooth="yes"/>
      <point x="579" y="1647" type="line" smooth="yes"/>
      <point x="571" y="1647"/>
      <point x="564" y="1633"/>
      <point x="563" y="1612" type="curve" smooth="yes"/>
      <point x="513" y="1006" type="line"/>
      <point x="388" y="1006" type="line"/>
      <point x="437" y="1612" type="line" smooth="yes"/>
      <point x="438" y="1629"/>
      <point x="435" y="1647"/>
      <point x="429" y="1647" type="curve" smooth="yes"/>
      <point x="355" y="1647" type="line" smooth="yes"/>
      <point x="348" y="1647"/>
      <point x="340" y="1633"/>
      <point x="338" y="1612" type="curve" smooth="yes"/>
      <point x="289" y="1006" type="line"/>
      <point x="210" y="1006" type="line" smooth="yes"/>
      <point x="196" y="1006"/>
      <point x="187" y="992"/>
      <point x="187" y="949" type="curve" smooth="yes"/>
      <point x="187" y="845" type="line" smooth="yes"/>
      <point x="187" y="802"/>
      <point x="196" y="788"/>
      <point x="210" y="788" type="curve" smooth="yes"/>
      <point x="272" y="788" type="line"/>
      <point x="255" y="580" type="line"/>
      <point x="185" y="580" type="line" smooth="yes"/>
      <point x="170" y="580"/>
      <point x="161" y="566"/>
      <point x="161" y="523" type="curve" smooth="yes"/>
      <point x="161" y="421" type="line" smooth="yes"/>
      <point x="161" y="378"/>
      <point x="170" y="364"/>
      <point x="185" y="364" type="curve" smooth="yes"/>
      <point x="238" y="364" type="line"/>
      <point x="195" y="-170" type="line" smooth="yes"/>
      <point x="193" y="-187"/>
      <point x="197" y="-205"/>
    </contour>
    <contour>
      <point x="496" y="788" type="line"/>
      <point x="479" y="580" type="line"/>
      <point x="355" y="580" type="line"/>
      <point x="372" y="788" type="line"/>
    </contour>
  </outline>
</glyph>
<glyph name="period" format="1">
  <advance width="437"/>
  <unicode hex="002E"/>
  <outline>
    <contour>
      <point x="181" y="0" type="curve" smooth="yes"/>
      <point x="256" y="0" type="line" smooth="yes"/>
      <point x="271" y="0"/>
      <point x="283" y="34"/>
      <point x="283" y="77" type="curve" smooth="yes"/>
      <point x="283" y="269" type="line" smooth="yes"/>
      <point x="283" y="312"/>
      <point x="271" y="346"/>
      <point x="256" y="346" type="curve" smooth="yes"/>
      <point x="181" y="346" type="line" smooth="yes"/>
      <point x="166" y="346"/>
      <point x="154" y="312"/>
      <point x="154" y="269" type="curve" smooth="yes"/>
      <point x="154" y="77" type="line" smooth="yes"/>
      <point x="154" y="34"/>
      <point x="166" y="0"/>
    </contour>
  </outline>
</glyph>
<glyph name="zero" format="1">
  <advance width="1035"/>
  <unicode hex="0030"/>
  <outline>
    <contour>
      <point x="518" y="341" type="curve" smooth="yes"/>
      <point x="447" y="341"/>
      <point x="415" y="427"/>
      <point x="415" y="722" type="curve" smooth="yes"/>
      <point x="415" y="1012"/>
      <point x="447" y="1100"/>
      <point x="518" y="1100" type="curve" smooth="yes"/>
      <point x="590" y="1100"/>
      <point x="619" y="1011"/>
      <point x="619" y="722" type="curve" smooth="yes"/>
      <point x="619" y="427"/>
      <point x="590" y="341"/>
    </contour>
    <contour>
      <point x="518" y="-41" type="curve" smooth="yes"/>
      <point x="698" y="-41"/>
      <point x="872" y="78"/>
      <point x="872" y="722" type="curve" smooth="yes"/>
      <point x="872" y="1319"/>
      <point x="698" y="1475"/>
      <point x="518" y="1475" type="curve" smooth="yes"/>
      <point x="339" y="1475"/>
      <point x="161" y="1319"/>
      <point x="161" y="722" type="curve" smooth="yes"/>
      <point x="161" y="78"/>
      <point x="339" y="-41"/>
    </contour>
  </outline>
</glyph>
<glyph name="seven" format="1">
  <advance width="766"/>
  <unicode hex="0037"/>
  <outline>
    <contour>
      <point x="273" y="0" type="curve" smooth="yes"/>
      <point x="461" y="0" type="line" smooth="yes"/>
      <point x="475" y="0"/>
      <point x="486" y="34"/>
      <point x="490" y="76" type="curve" smooth="yes"/>
      <point x="609" y="1362" type="line" smooth="yes"/>
      <point x="612" y="1404"/>
      <point x="600" y="1438"/>
      <point x="585" y="1438" type="curve" smooth="yes"/>
      <point x="177" y="1438" type="line" smooth="yes"/>
      <point x="162" y="1438"/>
      <point x="151" y="1405"/>
      <point x="151" y="1362" type="curve" smooth="yes"/>
      <point x="151" y="1146" type="line" smooth="yes"/>
      <point x="151" y="1103"/>
      <point x="162" y="1070"/>
      <point x="177" y="1070" type="curve" smooth="yes"/>
      <point x="334" y="1070" type="line" smooth="yes"/>
      <point x="341" y="1070"/>
      <point x="347" y="1053"/>
      <point x="345" y="1033" type="curve" smooth="yes"/>
      <point x="249" y="76" type="line" smooth="yes"/>
      <point x="245" y="34"/>
      <point x="258" y="0"/>
    </contour>
  </outline>
</glyph>
<glyph name="eight" format="1">
  <advance width="972"/>
  <unicode hex="0038"/>
  <outline>
    <contour>
      <point x="488" y="-41" type="curve" smooth="yes"/>
      <point x="646" y="-41"/>
      <point x="809" y="49"/>
      <point x="809" y="442" type="curve" smooth="yes"/>
      <point x="809" y="632"/>
      <point x="778" y="730"/>
      <point x="715" y="798" type="curve"/>
      <point x="754" y="838"/>
      <point x="779" y="953"/>
      <point x="779" y="1079" type="curve" smooth="yes"/>
      <point x="779" y="1407"/>
      <point x="626" y="1475"/>
      <point x="488" y="1475" type="curve" smooth="yes"/>
      <point x="349" y="1475"/>
      <point x="193" y="1404"/>
      <point x="193" y="1072" type="curve" smooth="yes"/>
      <point x="193" y="945"/>
      <point x="223" y="852"/>
      <point x="265" y="801" type="curve"/>
      <point x="207" y="757"/>
      <point x="163" y="633"/>
      <point x="163" y="443" type="curve" smooth="yes"/>
      <point x="163" y="17"/>
      <point x="330" y="-41"/>
    </contour>
    <contour>
      <point x="488" y="211" type="curve" smooth="yes"/>
      <point x="423" y="211"/>
      <point x="366" y="288"/>
      <point x="366" y="480" type="curve" smooth="yes"/>
      <point x="366" y="565"/>
      <point x="372" y="665"/>
      <point x="384" y="707" type="curve"/>
      <point x="464" y="653"/>
      <point x="604" y="719"/>
      <point x="604" y="462" type="curve" smooth="yes"/>
      <point x="604" y="269"/>
      <point x="552" y="211"/>
    </contour>
    <contour>
      <point x="581" y="869" type="curve" smooth="yes"/>
      <point x="439" y="861"/>
      <point x="378" y="917"/>
      <point x="378" y="1089" type="curve" smooth="yes"/>
      <point x="378" y="1233"/>
      <point x="432" y="1275"/>
      <point x="488" y="1275" type="curve" smooth="yes"/>
      <point x="542" y="1275"/>
      <point x="599" y="1217"/>
      <point x="599" y="1071" type="curve" smooth="yes"/>
      <point x="599" y="1000"/>
      <point x="595" y="873"/>
    </contour>
  </outline>
</glyph>
<glyph name="nine" format="1">
  <advance width="1039"/>
  <unicode hex="0039"/>
  <outline>
    <contour>
      <point x="490" y="-40" type="curve" smooth="yes"/>
      <point x="772" y="-40"/>
      <point x="876" y="215"/>
      <point x="876" y="772" type="curve" smooth="yes"/>
      <point x="876" y="1251"/>
      <point x="721" y="1476"/>
      <point x="511" y="1476" type="curve" smooth="yes"/>
      <point x="307" y="1476"/>
      <point x="160" y="1379"/>
      <point x="160" y="990" type="curve" smooth="yes"/>
      <point x="160" y="711"/>
      <point x="258" y="504"/>
      <point x="481" y="504" type="curve" smooth="yes"/>
      <point x="527" y="504"/>
      <point x="568" y="529"/>
      <point x="614" y="549" type="curve"/>
      <point x="614" y="529" type="line" smooth="yes"/>
      <point x="614" y="308"/>
      <point x="566" y="290"/>
      <point x="477" y="287" type="curve" smooth="yes"/>
      <point x="367" y="282"/>
      <point x="257" y="370"/>
      <point x="244" y="379" type="curve"/>
      <point x="241" y="381"/>
      <point x="238" y="382"/>
      <point x="236" y="382" type="curve" smooth="yes"/>
      <point x="227" y="382"/>
      <point x="222" y="370"/>
      <point x="220" y="340" type="curve" smooth="yes"/>
      <point x="212" y="140" type="line"/>
      <point x="212" y="135"/>
      <point x="212" y="131"/>
      <point x="212" y="127" type="curve" smooth="yes"/>
      <point x="212" y="98"/>
      <point x="217" y="81"/>
      <point x="229" y="72" type="curve"/>
      <point x="268" y="38"/>
      <point x="410" y="-40"/>
    </contour>
    <contour>
      <point x="497" y="757" type="curve" smooth="yes"/>
      <point x="423" y="757"/>
      <point x="404" y="824"/>
      <point x="404" y="971" type="curve" smooth="yes"/>
      <point x="404" y="1137"/>
      <point x="442" y="1176"/>
      <point x="505" y="1176" type="curve" smooth="yes"/>
      <point x="570" y="1176"/>
      <point x="614" y="1137"/>
      <point x="614" y="928" type="curve" smooth="yes"/>
      <point x="614" y="799" type="line"/>
      <point x="571" y="772"/>
      <point x="531" y="757"/>
    </contour>
  </outline>
</glyph>
<glyph name="less" format="1">
  <advance width="673"/>
  <unicode hex="003C"/>
  <outline>
    <contour>
      <point x="489" y="-95" type="curve" smooth="yes"/>
      <point x="496" y="-95"/>
      <point x="503" y="-76"/>
      <point x="503" y="-49" type="curve" smooth="yes"/>
      <point x="503" y="310" type="line" smooth="yes"/>
      <point x="503" y="356"/>
      <point x="494" y="399"/>
      <point x="479" y="419" type="curve" smooth="yes"/>
      <point x="303" y="665" type="line"/>
      <point x="300" y="668"/>
      <point x="299" y="674"/>
      <point x="299" y="680" type="curve" smooth="yes"/>
      <point x="299" y="686"/>
      <point x="300" y="692"/>
      <point x="302" y="696" type="curve"/>
      <point x="479" y="942" type="line" smooth="yes"/>
      <point x="493" y="962"/>
      <point x="503" y="1004"/>
      <point x="503" y="1050" type="curve" smooth="yes"/>
      <point x="503" y="1437" type="line" smooth="yes"/>
      <point x="503" y="1464"/>
      <point x="496" y="1483"/>
      <point x="488" y="1483" type="curve" smooth="yes"/>
      <point x="486" y="1483"/>
      <point x="483" y="1481"/>
      <point x="480" y="1477" type="curve"/>
      <point x="184" y="1012" type="line" smooth="yes"/>
      <point x="170" y="990"/>
      <point x="161" y="947"/>
      <point x="161" y="900" type="curve" smooth="yes"/>
      <point x="161" y="505" type="line" smooth="yes"/>
      <point x="161" y="458"/>
      <point x="169" y="413"/>
      <point x="183" y="391" type="curve" smooth="yes"/>
      <point x="480" y="-88" type="line"/>
      <point x="484" y="-92"/>
      <point x="487" y="-95"/>
    </contour>
  </outline>
</glyph>
<glyph name="greater" format="1">
  <advance width="674"/>
  <unicode hex="003E"/>
  <outline>
    <contour>
      <point x="185" y="-95" type="curve" smooth="yes"/>
      <point x="188" y="-95"/>
      <point x="189" y="-93"/>
      <point x="193" y="-89" type="curve"/>
      <point x="488" y="376" type="line" smooth="yes"/>
      <point x="502" y="398"/>
      <point x="512" y="441"/>
      <point x="512" y="488" type="curve" smooth="yes"/>
      <point x="512" y="883" type="line" smooth="yes"/>
      <point x="512" y="930"/>
      <point x="503" y="975"/>
      <point x="489" y="997" type="curve" smooth="yes"/>
      <point x="193" y="1476" type="line"/>
      <point x="189" y="1480"/>
      <point x="187" y="1483"/>
      <point x="185" y="1483" type="curve" smooth="yes"/>
      <point x="177" y="1483"/>
      <point x="170" y="1464"/>
      <point x="170" y="1437" type="curve" smooth="yes"/>
      <point x="170" y="1078" type="line" smooth="yes"/>
      <point x="170" y="1032"/>
      <point x="178" y="989"/>
      <point x="194" y="969" type="curve" smooth="yes"/>
      <point x="370" y="723" type="line"/>
      <point x="373" y="720"/>
      <point x="375" y="714"/>
      <point x="375" y="708" type="curve" smooth="yes"/>
      <point x="375" y="702"/>
      <point x="373" y="696"/>
      <point x="371" y="692" type="curve"/>
      <point x="193" y="446" type="line" smooth="yes"/>
      <point x="178" y="426"/>
      <point x="170" y="384"/>
      <point x="170" y="338" type="curve" smooth="yes"/>
      <point x="170" y="-49" type="line" smooth="yes"/>
      <point x="170" y="-76"/>
      <point x="177" y="-95"/>
    </contour>
  </outline>
</glyph>
<glyph name="A" format="1">
  <advance width="1077"/>
  <unicode hex="0041"/>
  <outline>
    <contour>
      <point x="164" y="0" type="curve" smooth="yes"/>
      <point x="339" y="0" type="line" smooth="yes"/>
      <point x="354" y="0"/>
      <point x="367" y="-5"/>
      <point x="372" y="37" type="curve" smooth="yes"/>
      <point x="407" y="269" type="line"/>
      <point x="410" y="288"/>
      <point x="411" y="300"/>
      <point x="421" y="300" type="curve" smooth="yes"/>
      <point x="598" y="300" type="line" smooth="yes"/>
      <point x="608" y="300"/>
      <point x="608" y="288"/>
      <point x="612" y="269" type="curve" smooth="yes"/>
      <point x="649" y="36" type="line" smooth="yes"/>
      <point x="656" y="-5"/>
      <point x="668" y="0"/>
      <point x="684" y="0" type="curve" smooth="yes"/>
      <point x="911" y="0" type="line" smooth="yes"/>
      <point x="921" y="0"/>
      <point x="928" y="3"/>
      <point x="928" y="27" type="curve" smooth="yes"/>
      <point x="928" y="34"/>
      <point x="927" y="60"/>
      <point x="926" y="68" type="curve" smooth="yes"/>
      <point x="712" y="1393" type="line" smooth="yes"/>
      <point x="705" y="1434"/>
      <point x="692" y="1438"/>
      <point x="676" y="1438" type="curve" smooth="yes"/>
      <point x="405" y="1438" type="line" smooth="yes"/>
      <point x="389" y="1438"/>
      <point x="375" y="1434"/>
      <point x="368" y="1393" type="curve" smooth="yes"/>
      <point x="149" y="68" type="line"/>
      <point x="149" y="60"/>
      <point x="148" y="35"/>
      <point x="148" y="27" type="curve" smooth="yes"/>
      <point x="148" y="3"/>
      <point x="155" y="0"/>
    </contour>
    <contour>
      <point x="452" y="477" type="curve" smooth="yes"/>
      <point x="452" y="480"/>
      <point x="433" y="482"/>
      <point x="434" y="485" type="curve"/>
      <point x="434" y="485"/>
      <point x="501" y="1004"/>
      <point x="501" y="1005" type="curve" smooth="yes"/>
      <point x="502" y="1010"/>
      <point x="504" y="1013"/>
      <point x="506" y="1013" type="curve" smooth="yes"/>
      <point x="508" y="1013"/>
      <point x="518" y="1070"/>
      <point x="519" y="1063" type="curve" smooth="yes"/>
      <point x="519" y="1063"/>
      <point x="581" y="546"/>
      <point x="581" y="546" type="curve"/>
      <point x="582" y="543"/>
      <point x="582" y="539"/>
      <point x="582" y="537" type="curve" smooth="yes"/>
      <point x="582" y="525"/>
      <point x="588" y="454"/>
      <point x="583" y="454" type="curve" smooth="yes"/>
      <point x="583" y="454"/>
      <point x="459" y="454"/>
      <point x="459" y="454" type="curve" smooth="yes"/>
      <point x="455" y="454"/>
      <point x="452" y="465"/>
    </contour>
  </outline>
</glyph>
<glyph name="C" format="1">
  <advance width="928"/>
  <unicode hex="0043"/>
  <outline>
    <contour>
      <point x="764" y="5" type="curve"/>
      <point x="764" y="250" type="line"/>
      <point x="728" y="238"/>
      <point x="697" y="224"/>
      <point x="641" y="224" type="curve" smooth="yes"/>
      <point x="499" y="224"/>
      <point x="437" y="281"/>
      <point x="437" y="719" type="curve" smooth="yes"/>
      <point x="437" y="1152"/>
      <point x="515" y="1220"/>
      <point x="651" y="1220" type="curve" smooth="yes"/>
      <point x="701" y="1220"/>
      <point x="738" y="1207"/>
      <point x="764" y="1195" type="curve"/>
      <point x="764" y="1430" type="line"/>
      <point x="728" y="1447"/>
      <point x="642" y="1457"/>
      <point x="589" y="1457" type="curve" smooth="yes"/>
      <point x="380" y="1457"/>
      <point x="161" y="1381"/>
      <point x="161" y="719" type="curve" smooth="yes"/>
      <point x="161" y="54"/>
      <point x="374" y="-20"/>
      <point x="596" y="-20" type="curve" smooth="yes"/>
      <point x="658" y="-20"/>
      <point x="727" y="-10"/>
    </contour>
  </outline>
</glyph>
<glyph name="J" format="1">
  <advance width="734"/>
  <unicode hex="004A"/>
  <outline>
    <contour>
      <point x="164" y="-161" type="curve" smooth="yes"/>
      <point x="339" y="-161"/>
      <point x="564" y="-38"/>
      <point x="564" y="595" type="curve" smooth="yes"/>
      <point x="564" y="1399" type="line" smooth="yes"/>
      <point x="564" y="1421"/>
      <point x="557" y="1438"/>
      <point x="550" y="1438" type="curve" smooth="yes"/>
      <point x="298" y="1438" type="line" smooth="yes"/>
      <point x="290" y="1438"/>
      <point x="285" y="1421"/>
      <point x="285" y="1399" type="curve" smooth="yes"/>
      <point x="285" y="595" type="line" smooth="yes"/>
      <point x="285" y="312"/>
      <point x="238" y="228"/>
      <point x="165" y="220" type="curve" smooth="yes"/>
      <point x="158" y="219"/>
      <point x="152" y="202"/>
      <point x="152" y="180" type="curve" smooth="yes"/>
      <point x="152" y="180"/>
      <point x="152" y="-124"/>
      <point x="152" y="-124" type="curve" smooth="yes"/>
      <point x="152" y="-145"/>
      <point x="158" y="-161"/>
    </contour>
  </outline>
</glyph>
<glyph name="K" format="1">
  <advance width="1003"/>
  <unicode hex="004B"/>
  <outline>
    <contour>
      <point x="199" y="0" type="curve" smooth="yes"/>
      <point x="395" y="0" type="line" smooth="yes"/>
      <point x="409" y="0"/>
      <point x="421" y="5"/>
      <point x="421" y="48" type="curve" smooth="yes"/>
      <point x="421" y="661" type="line"/>
      <point x="570" y="63" type="line" smooth="yes"/>
      <point x="579" y="25"/>
      <point x="595" y="0"/>
      <point x="612" y="0" type="curve" smooth="yes"/>
      <point x="835" y="0" type="line" smooth="yes"/>
      <point x="846" y="0"/>
      <point x="852" y="36"/>
      <point x="845" y="62" type="curve" smooth="yes"/>
      <point x="655" y="788" type="line" smooth="yes"/>
      <point x="652" y="800"/>
      <point x="648" y="810"/>
      <point x="644" y="818" type="curve"/>
      <point x="649" y="827"/>
      <point x="654" y="839"/>
      <point x="658" y="853" type="curve" smooth="yes"/>
      <point x="814" y="1378" type="line" smooth="yes"/>
      <point x="822" y="1403"/>
      <point x="817" y="1438"/>
      <point x="806" y="1438" type="curve" smooth="yes"/>
      <point x="619" y="1438" type="line" smooth="yes"/>
      <point x="604" y="1438"/>
      <point x="586" y="1412"/>
      <point x="577" y="1378" type="curve" smooth="yes"/>
      <point x="421" y="825" type="line"/>
      <point x="421" y="1390" type="line" smooth="yes"/>
      <point x="421" y="1433"/>
      <point x="409" y="1438"/>
      <point x="395" y="1438" type="curve" smooth="yes"/>
      <point x="199" y="1438" type="line" smooth="yes"/>
      <point x="184" y="1438"/>
      <point x="172" y="1433"/>
      <point x="172" y="1390" type="curve" smooth="yes"/>
      <point x="172" y="48" type="line" smooth="yes"/>
      <point x="172" y="5"/>
      <point x="184" y="0"/>
    </contour>
  </outline>
</glyph>
<glyph name="M" format="1">
  <advance width="1259"/>
  <unicode hex="004D"/>
  <outline>
    <contour>
      <point x="194" y="0" type="curve" smooth="yes"/>
      <point x="358" y="0" type="line" smooth="yes"/>
      <point x="373" y="0"/>
      <point x="384" y="5"/>
      <point x="384" y="48" type="curve" smooth="yes"/>
      <point x="399" y="786" type="line" smooth="yes"/>
      <point x="399" y="795"/>
      <point x="403" y="799"/>
      <point x="405" y="791" type="curve" smooth="yes"/>
      <point x="549" y="39" type="line" smooth="yes"/>
      <point x="558" y="-2"/>
      <point x="573" y="0"/>
      <point x="588" y="0" type="curve" smooth="yes"/>
      <point x="670" y="0" type="line" smooth="yes"/>
      <point x="687" y="0"/>
      <point x="702" y="-2"/>
      <point x="710" y="39" type="curve" smooth="yes"/>
      <point x="854" y="792" type="line" smooth="yes"/>
      <point x="856" y="800"/>
      <point x="861" y="797"/>
      <point x="861" y="787" type="curve" smooth="yes"/>
      <point x="876" y="48" type="line" smooth="yes"/>
      <point x="876" y="5"/>
      <point x="887" y="0"/>
      <point x="902" y="0" type="curve" smooth="yes"/>
      <point x="1065" y="0" type="line" smooth="yes"/>
      <point x="1081" y="0"/>
      <point x="1091" y="5"/>
      <point x="1091" y="48" type="curve" smooth="yes"/>
      <point x="1063" y="1386" type="line" smooth="yes"/>
      <point x="1063" y="1429"/>
      <point x="1052" y="1438"/>
      <point x="1038" y="1438" type="curve" smooth="yes"/>
      <point x="805" y="1438" type="line" smooth="yes"/>
      <point x="790" y="1438"/>
      <point x="774" y="1435"/>
      <point x="767" y="1395" type="curve" smooth="yes"/>
      <point x="635" y="684" type="line" smooth="yes"/>
      <point x="633" y="671"/>
      <point x="626" y="671"/>
      <point x="623" y="684" type="curve" smooth="yes"/>
      <point x="493" y="1395" type="line" smooth="yes"/>
      <point x="485" y="1435"/>
      <point x="471" y="1438"/>
      <point x="455" y="1438" type="curve" smooth="yes"/>
      <point x="222" y="1438" type="line" smooth="yes"/>
      <point x="207" y="1438"/>
      <point x="197" y="1429"/>
      <point x="197" y="1386" type="curve"/>
      <point x="168" y="48" type="line"/>
      <point x="168" y="5"/>
      <point x="180" y="0"/>
    </contour>
  </outline>
</glyph>
<glyph name="R" format="1">
  <advance width="1066"/>
  <unicode hex="0052"/>
  <outline>
    <contour>
      <point x="199" y="0" type="curve" smooth="yes"/>
      <point x="389" y="0" type="line" smooth="yes"/>
      <point x="404" y="0"/>
      <point x="416" y="5"/>
      <point x="416" y="48" type="curve" smooth="yes"/>
      <point x="416" y="569" type="line" smooth="yes"/>
      <point x="416" y="587"/>
      <point x="421" y="595"/>
      <point x="427" y="595" type="curve" smooth="yes"/>
      <point x="518" y="595" type="line" smooth="yes"/>
      <point x="554" y="595"/>
      <point x="608" y="595"/>
      <point x="623" y="513" type="curve" smooth="yes"/>
      <point x="639" y="435"/>
      <point x="647" y="127"/>
      <point x="652" y="40" type="curve" smooth="yes"/>
      <point x="656" y="-12"/>
      <point x="665" y="0"/>
      <point x="687" y="0" type="curve" smooth="yes"/>
      <point x="885" y="0" type="line" smooth="yes"/>
      <point x="895" y="0"/>
      <point x="900" y="21"/>
      <point x="899" y="48" type="curve" smooth="yes"/>
      <point x="899" y="69"/>
      <point x="892" y="306"/>
      <point x="890" y="362" type="curve" smooth="yes"/>
      <point x="877" y="611"/>
      <point x="833" y="672"/>
      <point x="751" y="713" type="curve"/>
      <point x="750" y="713"/>
      <point x="749" y="715"/>
      <point x="749" y="717" type="curve" smooth="yes"/>
      <point x="749" y="719"/>
      <point x="750" y="721"/>
      <point x="751" y="722" type="curve"/>
      <point x="825" y="750"/>
      <point x="887" y="812"/>
      <point x="887" y="1031" type="curve" smooth="yes"/>
      <point x="887" y="1385"/>
      <point x="750" y="1438"/>
      <point x="577" y="1438" type="curve" smooth="yes"/>
      <point x="468" y="1438"/>
      <point x="199" y="1438"/>
      <point x="199" y="1438" type="curve"/>
      <point x="184" y="1438"/>
      <point x="172" y="1433"/>
      <point x="172" y="1390" type="curve" smooth="yes"/>
      <point x="172" y="48" type="line" smooth="yes"/>
      <point x="172" y="5"/>
      <point x="184" y="0"/>
    </contour>
    <contour>
      <point x="529" y="815" type="curve" smooth="yes"/>
      <point x="427" y="815" type="line" smooth="yes"/>
      <point x="421" y="815"/>
      <point x="416" y="832"/>
      <point x="416" y="850" type="curve" smooth="yes"/>
      <point x="416" y="1204" type="line" smooth="yes"/>
      <point x="416" y="1222"/>
      <point x="422" y="1229"/>
      <point x="427" y="1229" type="curve" smooth="yes"/>
      <point x="497" y="1229" type="line" smooth="yes"/>
      <point x="613" y="1229"/>
      <point x="638" y="1161"/>
      <point x="638" y="1025" type="curve" smooth="yes"/>
      <point x="638" y="939"/>
      <point x="624" y="815"/>
    </contour>
  </outline>
</glyph>
<glyph name="U" format="1">
  <advance width="1150"/>
  <unicode hex="0055"/>
  <outline>
    <contour>
      <point x="582" y="-40" type="curve" smooth="yes"/>
      <point x="756" y="-40"/>
      <point x="981" y="6"/>
      <point x="981" y="653" type="curve" smooth="yes"/>
      <point x="981" y="1391" type="line" smooth="yes"/>
      <point x="981" y="1434"/>
      <point x="970" y="1438"/>
      <point x="955" y="1438" type="curve" smooth="yes"/>
      <point x="742" y="1438" type="line" smooth="yes"/>
      <point x="728" y="1438"/>
      <point x="716" y="1434"/>
      <point x="716" y="1391" type="curve" smooth="yes"/>
      <point x="716" y="587" type="line" smooth="yes"/>
      <point x="716" y="285"/>
      <point x="664" y="203"/>
      <point x="582" y="203" type="curve" smooth="yes"/>
      <point x="500" y="203"/>
      <point x="448" y="284"/>
      <point x="448" y="587" type="curve" smooth="yes"/>
      <point x="448" y="1391" type="line" smooth="yes"/>
      <point x="448" y="1434"/>
      <point x="436" y="1438"/>
      <point x="422" y="1438" type="curve" smooth="yes"/>
      <point x="196" y="1438" type="line" smooth="yes"/>
      <point x="181" y="1438"/>
      <point x="169" y="1434"/>
      <point x="169" y="1391" type="curve" smooth="yes"/>
      <point x="169" y="653" type="line" smooth="yes"/>
      <point x="169" y="6"/>
      <point x="403" y="-40"/>
    </contour>
  </outline>
</glyph>
<glyph name="W" format="1">
  <advance width="1369"/>
  <unicode hex="0057"/>
  <outline>
    <contour>
      <point x="377" y="0" type="curve" smooth="yes"/>
      <point x="552" y="0"/>
      <point x="556" y="0"/>
      <point x="556" y="0" type="curve"/>
      <point x="570" y="3"/>
      <point x="584" y="31"/>
      <point x="590" y="70" type="curve" smooth="yes"/>
      <point x="681" y="673" type="line"/>
      <point x="768" y="71" type="line" smooth="yes"/>
      <point x="773" y="29"/>
      <point x="787" y="0"/>
      <point x="802" y="0" type="curve" smooth="yes"/>
      <point x="992" y="0" type="line" smooth="yes"/>
      <point x="1008" y="0"/>
      <point x="1022" y="28"/>
      <point x="1028" y="70" type="curve" smooth="yes"/>
      <point x="1218" y="1368" type="line" smooth="yes"/>
      <point x="1224" y="1402"/>
      <point x="1216" y="1438"/>
      <point x="1204" y="1438" type="curve" smooth="yes"/>
      <point x="1040" y="1438" type="line" smooth="yes"/>
      <point x="1024" y="1438"/>
      <point x="1010" y="1410"/>
      <point x="1004" y="1368" type="curve" smooth="yes"/>
      <point x="905" y="700" type="line"/>
      <point x="809" y="1367" type="line" smooth="yes"/>
      <point x="803" y="1407"/>
      <point x="790" y="1435"/>
      <point x="775" y="1438" type="curve"/>
      <point x="622" y="1438" type="line" smooth="yes"/>
      <point x="606" y="1438"/>
      <point x="591" y="1410"/>
      <point x="585" y="1368" type="curve" smooth="yes"/>
      <point x="485" y="711" type="line"/>
      <point x="396" y="1366" type="line" smooth="yes"/>
      <point x="391" y="1409"/>
      <point x="377" y="1438"/>
      <point x="361" y="1438" type="curve" smooth="yes"/>
      <point x="165" y="1438" type="line" smooth="yes"/>
      <point x="151" y="1438"/>
      <point x="144" y="1402"/>
      <point x="149" y="1368" type="curve" smooth="yes"/>
      <point x="341" y="70" type="line" smooth="yes"/>
      <point x="347" y="28"/>
      <point x="362" y="0"/>
    </contour>
  </outline>
</glyph>
<glyph name="Y" format="1">
  <advance width="998"/>
  <unicode hex="0059"/>
  <outline>
    <contour>
      <point x="403" y="0" type="curve" smooth="yes"/>
      <point x="598" y="0" type="line" smooth="yes"/>
      <point x="612" y="0"/>
      <point x="625" y="8"/>
      <point x="625" y="51" type="curve" smooth="yes"/>
      <point x="625" y="453" type="line"/>
      <point x="859" y="1376" type="line"/>
      <point x="861" y="1383"/>
      <point x="863" y="1392"/>
      <point x="863" y="1400" type="curve" smooth="yes"/>
      <point x="863" y="1420"/>
      <point x="857" y="1438"/>
      <point x="849" y="1438" type="curve" smooth="yes"/>
      <point x="677" y="1438" type="line" smooth="yes"/>
      <point x="662" y="1438"/>
      <point x="645" y="1413"/>
      <point x="636" y="1375" type="curve" smooth="yes"/>
      <point x="517" y="889" type="line"/>
      <point x="396" y="1376" type="line" smooth="yes"/>
      <point x="385" y="1414"/>
      <point x="369" y="1438"/>
      <point x="353" y="1438" type="curve" smooth="yes"/>
      <point x="146" y="1438" type="line" smooth="yes"/>
      <point x="138" y="1438"/>
      <point x="134" y="1420"/>
      <point x="134" y="1401" type="curve" smooth="yes"/>
      <point x="134" y="1393"/>
      <point x="135" y="1384"/>
      <point x="137" y="1377" type="curve" smooth="yes"/>
      <point x="377" y="450" type="line"/>
      <point x="377" y="51" type="line" smooth="yes"/>
      <point x="377" y="8"/>
      <point x="388" y="0"/>
    </contour>
  </outline>
</glyph>
<glyph name="Z" format="1">
  <advance width="954"/>
  <unicode hex="005A"/>
  <outline>
    <contour>
      <point x="191" y="0" type="curve" smooth="yes"/>
      <point x="763" y="0" type="line" smooth="yes"/>
      <point x="778" y="0"/>
      <point x="789" y="34"/>
      <point x="789" y="77" type="curve" smooth="yes"/>
      <point x="789" y="290" type="line" smooth="yes"/>
      <point x="789" y="333"/>
      <point x="778" y="367"/>
      <point x="763" y="367" type="curve" smooth="yes"/>
      <point x="494" y="367" type="line" smooth="yes"/>
      <point x="490" y="367"/>
      <point x="489" y="374"/>
      <point x="489" y="381" type="curve" smooth="yes"/>
      <point x="489" y="386"/>
      <point x="489" y="389"/>
      <point x="490" y="393" type="curve"/>
      <point x="755" y="1070" type="line" smooth="yes"/>
      <point x="767" y="1100"/>
      <point x="775" y="1148"/>
      <point x="775" y="1195" type="curve" smooth="yes"/>
      <point x="775" y="1361" type="line" smooth="yes"/>
      <point x="775" y="1404"/>
      <point x="763" y="1438"/>
      <point x="749" y="1438" type="curve" smooth="yes"/>
      <point x="203" y="1438" type="line" smooth="yes"/>
      <point x="189" y="1438"/>
      <point x="177" y="1404"/>
      <point x="177" y="1361" type="curve" smooth="yes"/>
      <point x="177" y="1149" type="line" smooth="yes"/>
      <point x="177" y="1106"/>
      <point x="189" y="1072"/>
      <point x="203" y="1072" type="curve" smooth="yes"/>
      <point x="438" y="1072" type="line" smooth="yes"/>
      <point x="440" y="1072"/>
      <point x="442" y="1065"/>
      <point x="442" y="1058" type="curve" smooth="yes"/>
      <point x="442" y="1054"/>
      <point x="442" y="1050"/>
      <point x="440" y="1046" type="curve"/>
      <point x="186" y="379" type="line" smooth="yes"/>
      <point x="173" y="349"/>
      <point x="166" y="301"/>
      <point x="166" y="256" type="curve" smooth="yes"/>
      <point x="166" y="77" type="line" smooth="yes"/>
      <point x="166" y="34"/>
      <point x="177" y="0"/>
    </contour>
  </outline>
</glyph>
<glyph name="grave" format="1">
  <advance width="598"/>
  <unicode hex="0060"/>
  <outline>
    <contour>
      <point x="426" y="1171" type="curve" smooth="yes"/>
      <point x="474" y="1171" type="line" smooth="yes"/>
      <point x="484" y="1171"/>
      <point x="489" y="1176"/>
      <point x="489" y="1203" type="curve" smooth="yes"/>
      <point x="489" y="1212"/>
      <point x="489" y="1224"/>
      <point x="488" y="1238" type="curve" smooth="yes"/>
      <point x="466" y="1565" type="line" smooth="yes"/>
      <point x="463" y="1608"/>
      <point x="457" y="1620"/>
      <point x="442" y="1620" type="curve" smooth="yes"/>
      <point x="350" y="1620" type="line" smooth="yes"/>
      <point x="343" y="1620"/>
      <point x="340" y="1608"/>
      <point x="340" y="1592" type="curve" smooth="yes"/>
      <point x="340" y="1581"/>
      <point x="342" y="1567"/>
      <point x="344" y="1555" type="curve" smooth="yes"/>
      <point x="407" y="1210" type="line" smooth="yes"/>
      <point x="410" y="1193"/>
      <point x="414" y="1171"/>
    </contour>
  </outline>
</glyph>
<glyph name="c" format="1">
  <advance width="850"/>
  <unicode hex="0063"/>
  <outline>
    <contour>
      <point x="461" y="-41" type="curve" smooth="yes"/>
      <point x="534" y="-41"/>
      <point x="609" y="-5"/>
      <point x="665" y="47" type="curve" smooth="yes"/>
      <point x="679" y="60"/>
      <point x="687" y="102"/>
      <point x="682" y="140" type="curve" smooth="yes"/>
      <point x="677" y="180"/>
      <point x="672" y="220"/>
      <point x="668" y="259" type="curve" smooth="yes"/>
      <point x="664" y="299"/>
      <point x="650" y="318"/>
      <point x="636" y="306" type="curve" smooth="yes"/>
      <point x="598" y="274"/>
      <point x="546" y="242"/>
      <point x="497" y="242" type="curve" smooth="yes"/>
      <point x="425" y="242"/>
      <point x="363" y="306"/>
      <point x="363" y="510" type="curve" smooth="yes"/>
      <point x="363" y="702"/>
      <point x="420" y="766"/>
      <point x="486" y="766" type="curve" smooth="yes"/>
      <point x="537" y="766"/>
      <point x="592" y="728"/>
      <point x="631" y="688" type="curve" smooth="yes"/>
      <point x="645" y="675"/>
      <point x="659" y="692"/>
      <point x="665" y="734" type="curve" smooth="yes"/>
      <point x="670" y="771"/>
      <point x="674" y="812"/>
      <point x="680" y="850" type="curve" smooth="yes"/>
      <point x="685" y="887"/>
      <point x="677" y="935"/>
      <point x="664" y="951" type="curve" smooth="yes"/>
      <point x="609" y="1013"/>
      <point x="534" y="1053"/>
      <point x="456" y="1053" type="curve" smooth="yes"/>
      <point x="309" y="1053"/>
      <point x="157" y="909"/>
      <point x="157" y="510" type="curve" smooth="yes"/>
      <point x="157" y="95"/>
      <point x="309" y="-41"/>
    </contour>
  </outline>
</glyph>
<glyph name="f" format="1">
  <advance width="782"/>
  <unicode hex="0066"/>
  <outline>
    <contour>
      <point x="266" y="0" type="curve" smooth="yes"/>
      <point x="421" y="0" type="line" smooth="yes"/>
      <point x="435" y="0"/>
      <point x="447" y="34"/>
      <point x="447" y="77" type="curve" smooth="yes"/>
      <point x="447" y="756" type="line" smooth="yes"/>
      <point x="447" y="776"/>
      <point x="449" y="793"/>
      <point x="455" y="793" type="curve" smooth="yes"/>
      <point x="590" y="793" type="line" smooth="yes"/>
      <point x="605" y="793"/>
      <point x="613" y="802"/>
      <point x="613" y="845" type="curve" smooth="yes"/>
      <point x="613" y="951" type="line" smooth="yes"/>
      <point x="613" y="994"/>
      <point x="605" y="1006"/>
      <point x="590" y="1006" type="curve" smooth="yes"/>
      <point x="449" y="1006" type="line"/>
      <point x="449" y="1006"/>
      <point x="447" y="1009"/>
      <point x="447" y="1012" type="curve" smooth="yes"/>
      <point x="447" y="1015"/>
      <point x="447" y="1062"/>
      <point x="447" y="1064" type="curve" smooth="yes"/>
      <point x="447" y="1156"/>
      <point x="482" y="1186"/>
      <point x="536" y="1186" type="curve" smooth="yes"/>
      <point x="558" y="1186"/>
      <point x="605" y="1169"/>
      <point x="607" y="1169" type="curve" smooth="yes"/>
      <point x="619" y="1169"/>
      <point x="620" y="1183"/>
      <point x="620" y="1220" type="curve" smooth="yes"/>
      <point x="620" y="1375" type="line" smooth="yes"/>
      <point x="620" y="1403"/>
      <point x="613" y="1431"/>
      <point x="604" y="1438" type="curve"/>
      <point x="565" y="1457"/>
      <point x="518" y="1475"/>
      <point x="472" y="1475" type="curve" smooth="yes"/>
      <point x="357" y="1475"/>
      <point x="247" y="1365"/>
      <point x="240" y="1044" type="curve"/>
      <point x="240" y="1022"/>
      <point x="240" y="1006"/>
      <point x="233" y="1006" type="curve" smooth="yes"/>
      <point x="181" y="1006" type="line" smooth="yes"/>
      <point x="166" y="1006"/>
      <point x="158" y="988"/>
      <point x="158" y="945" type="curve" smooth="yes"/>
      <point x="158" y="845" type="line" smooth="yes"/>
      <point x="158" y="802"/>
      <point x="166" y="793"/>
      <point x="181" y="793" type="curve" smooth="yes"/>
      <point x="233" y="793" type="line" smooth="yes"/>
      <point x="240" y="793"/>
      <point x="240" y="776"/>
      <point x="240" y="756" type="curve" smooth="yes"/>
      <point x="240" y="77" type="line" smooth="yes"/>
      <point x="240" y="34"/>
      <point x="252" y="0"/>
    </contour>
  </outline>
</glyph>
<glyph name="h" format="1">
  <advance width="939"/>
  <unicode hex="0068"/>
  <outline>
    <contour>
      <point x="199" y="0" type="curve" smooth="yes"/>
      <point x="345" y="0" type="line" smooth="yes"/>
      <point x="359" y="0"/>
      <point x="371" y="33"/>
      <point x="371" y="76" type="curve" smooth="yes"/>
      <point x="371" y="504" type="line" smooth="yes"/>
      <point x="371" y="637"/>
      <point x="408" y="770"/>
      <point x="475" y="770" type="curve" smooth="yes"/>
      <point x="539" y="770"/>
      <point x="573" y="641"/>
      <point x="573" y="504" type="curve" smooth="yes"/>
      <point x="573" y="76" type="line" smooth="yes"/>
      <point x="573" y="33"/>
      <point x="584" y="0"/>
      <point x="599" y="0" type="curve" smooth="yes"/>
      <point x="751" y="0" type="line" smooth="yes"/>
      <point x="766" y="0"/>
      <point x="776" y="33"/>
      <point x="776" y="76" type="curve" smooth="yes"/>
      <point x="776" y="515" type="line" smooth="yes"/>
      <point x="776" y="866"/>
      <point x="664" y="1053"/>
      <point x="544" y="1053" type="curve" smooth="yes"/>
      <point x="484" y="1053"/>
      <point x="425" y="1007"/>
      <point x="380" y="914" type="curve" smooth="yes"/>
      <point x="377" y="906"/>
      <point x="371" y="914"/>
      <point x="371" y="929" type="curve" smooth="yes"/>
      <point x="371" y="1360" type="line" smooth="yes"/>
      <point x="371" y="1403"/>
      <point x="359" y="1436"/>
      <point x="345" y="1436" type="curve" smooth="yes"/>
      <point x="199" y="1436" type="line" smooth="yes"/>
      <point x="184" y="1436"/>
      <point x="172" y="1403"/>
      <point x="172" y="1360" type="curve" smooth="yes"/>
      <point x="172" y="76" type="line" smooth="yes"/>
      <point x="172" y="33"/>
      <point x="184" y="0"/>
    </contour>
  </outline>
</glyph>
<glyph name="k" format="1">
  <advance width="929"/>
  <unicode hex="006B"/>
  <outline>
    <contour>
      <point x="199" y="0" type="curve" smooth="yes"/>
      <point x="345" y="0" type="line" smooth="yes"/>
      <point x="359" y="0"/>
      <point x="371" y="33"/>
      <point x="371" y="76" type="curve" smooth="yes"/>
      <point x="371" y="80"/>
      <point x="371" y="212"/>
      <point x="371" y="213" type="curve" smooth="yes"/>
      <point x="371" y="235"/>
      <point x="374" y="257"/>
      <point x="380" y="271" type="curve" smooth="yes"/>
      <point x="380" y="271"/>
      <point x="420" y="366"/>
      <point x="421" y="368" type="curve"/>
      <point x="423" y="374"/>
      <point x="426" y="377"/>
      <point x="429" y="377" type="curve" smooth="yes"/>
      <point x="433" y="377"/>
      <point x="435" y="373"/>
      <point x="438" y="365" type="curve"/>
      <point x="538" y="58" type="line" smooth="yes"/>
      <point x="550" y="23"/>
      <point x="558" y="0"/>
      <point x="573" y="0" type="curve" smooth="yes"/>
      <point x="758" y="0" type="line" smooth="yes"/>
      <point x="764" y="0"/>
      <point x="769" y="16"/>
      <point x="769" y="31" type="curve" smooth="yes"/>
      <point x="769" y="40"/>
      <point x="767" y="48"/>
      <point x="765" y="55" type="curve" smooth="yes"/>
      <point x="585" y="572" type="line"/>
      <point x="583" y="578"/>
      <point x="582" y="585"/>
      <point x="582" y="593" type="curve" smooth="yes"/>
      <point x="582" y="603"/>
      <point x="583" y="612"/>
      <point x="586" y="618" type="curve" smooth="yes"/>
      <point x="748" y="959" type="line"/>
      <point x="751" y="965"/>
      <point x="752" y="973"/>
      <point x="752" y="982" type="curve" smooth="yes"/>
      <point x="752" y="994"/>
      <point x="749" y="1006"/>
      <point x="744" y="1006" type="curve" smooth="yes"/>
      <point x="539" y="1006" type="line" smooth="yes"/>
      <point x="523" y="1006"/>
      <point x="504" y="987"/>
      <point x="491" y="959" type="curve" smooth="yes"/>
      <point x="381" y="724" type="line" smooth="yes"/>
      <point x="380" y="722"/>
      <point x="378" y="720"/>
      <point x="378" y="720" type="curve"/>
      <point x="374" y="720"/>
      <point x="371" y="728"/>
      <point x="371" y="739" type="curve" smooth="yes"/>
      <point x="371" y="1396" type="line" smooth="yes"/>
      <point x="371" y="1439"/>
      <point x="359" y="1472"/>
      <point x="345" y="1472" type="curve" smooth="yes"/>
      <point x="199" y="1472" type="line" smooth="yes"/>
      <point x="184" y="1472"/>
      <point x="172" y="1439"/>
      <point x="172" y="1396" type="curve" smooth="yes"/>
      <point x="172" y="76" type="line" smooth="yes"/>
      <point x="172" y="33"/>
      <point x="184" y="0"/>
    </contour>
  </outline>
</glyph>
<glyph name="m" format="1">
  <advance width="1256"/>
  <unicode hex="006D"/>
  <outline>
    <contour>
      <point x="194" y="0" type="curve" smooth="yes"/>
      <point x="340" y="0" type="line" smooth="yes"/>
      <point x="354" y="0"/>
      <point x="366" y="33"/>
      <point x="366" y="76" type="curve" smooth="yes"/>
      <point x="366" y="219"/>
      <point x="366" y="329"/>
      <point x="366" y="402" type="curve" smooth="yes"/>
      <point x="366" y="585"/>
      <point x="381" y="770"/>
      <point x="451" y="770" type="curve" smooth="yes"/>
      <point x="501" y="770"/>
      <point x="529" y="641"/>
      <point x="529" y="504" type="curve" smooth="yes"/>
      <point x="529" y="76" type="line" smooth="yes"/>
      <point x="529" y="33"/>
      <point x="540" y="0"/>
      <point x="556" y="0" type="curve" smooth="yes"/>
      <point x="702" y="0" type="line" smooth="yes"/>
      <point x="717" y="0"/>
      <point x="728" y="33"/>
      <point x="728" y="76" type="curve" smooth="yes"/>
      <point x="728" y="280" type="line" smooth="yes"/>
      <point x="728" y="354"/>
      <point x="728" y="473"/>
      <point x="728" y="474" type="curve" smooth="yes"/>
      <point x="728" y="728"/>
      <point x="773" y="770"/>
      <point x="810" y="770" type="curve" smooth="yes"/>
      <point x="866" y="770"/>
      <point x="891" y="691"/>
      <point x="891" y="504" type="curve" smooth="yes"/>
      <point x="891" y="76" type="line" smooth="yes"/>
      <point x="891" y="33"/>
      <point x="901" y="0"/>
      <point x="916" y="0" type="curve" smooth="yes"/>
      <point x="1068" y="0" type="line" smooth="yes"/>
      <point x="1082" y="0"/>
      <point x="1093" y="33"/>
      <point x="1093" y="76" type="curve" smooth="yes"/>
      <point x="1093" y="515" type="line" smooth="yes"/>
      <point x="1093" y="876"/>
      <point x="982" y="1053"/>
      <point x="863" y="1053" type="curve" smooth="yes"/>
      <point x="800" y="1053"/>
      <point x="736" y="994"/>
      <point x="693" y="878" type="curve"/>
      <point x="691" y="869"/>
      <point x="688" y="866"/>
      <point x="684" y="866" type="curve" smooth="yes"/>
      <point x="680" y="866"/>
      <point x="678" y="870"/>
      <point x="675" y="878" type="curve" smooth="yes"/>
      <point x="632" y="994"/>
      <point x="568" y="1053"/>
      <point x="500" y="1053" type="curve" smooth="yes"/>
      <point x="424" y="1053"/>
      <point x="352" y="972"/>
      <point x="312" y="812" type="curve" smooth="yes"/>
      <point x="310" y="804"/>
      <point x="308" y="801"/>
      <point x="305" y="801" type="curve" smooth="yes"/>
      <point x="302" y="801"/>
      <point x="299" y="805"/>
      <point x="297" y="813" type="curve" smooth="yes"/>
      <point x="269" y="942" type="line" smooth="yes"/>
      <point x="261" y="982"/>
      <point x="244" y="1006"/>
      <point x="229" y="1006" type="curve" smooth="yes"/>
      <point x="194" y="1006" type="line" smooth="yes"/>
      <point x="180" y="1006"/>
      <point x="168" y="972"/>
      <point x="168" y="929" type="curve" smooth="yes"/>
      <point x="168" y="76" type="line" smooth="yes"/>
      <point x="168" y="33"/>
      <point x="180" y="0"/>
    </contour>
  </outline>
</glyph>
<glyph name="n" format="1">
  <advance width="938"/>
  <unicode hex="006E"/>
  <outline>
    <contour>
      <point x="194" y="0" type="curve" smooth="yes"/>
      <point x="340" y="0" type="line" smooth="yes"/>
      <point x="354" y="0"/>
      <point x="366" y="33"/>
      <point x="366" y="76" type="curve" smooth="yes"/>
      <point x="366" y="504" type="line" smooth="yes"/>
      <point x="366" y="637"/>
      <point x="403" y="770"/>
      <point x="471" y="770" type="curve" smooth="yes"/>
      <point x="535" y="770"/>
      <point x="573" y="641"/>
      <point x="573" y="504" type="curve" smooth="yes"/>
      <point x="573" y="76" type="line" smooth="yes"/>
      <point x="573" y="33"/>
      <point x="583" y="0"/>
      <point x="598" y="0" type="curve" smooth="yes"/>
      <point x="749" y="0" type="line" smooth="yes"/>
      <point x="764" y="0"/>
      <point x="775" y="33"/>
      <point x="775" y="76" type="curve" smooth="yes"/>
      <point x="775" y="515" type="line" smooth="yes"/>
      <point x="775" y="880"/>
      <point x="673" y="1053"/>
      <point x="522" y="1053" type="curve" smooth="yes"/>
      <point x="440" y="1053"/>
      <point x="357" y="972"/>
      <point x="312" y="811" type="curve" smooth="yes"/>
      <point x="310" y="804"/>
      <point x="308" y="800"/>
      <point x="305" y="800" type="curve" smooth="yes"/>
      <point x="302" y="800"/>
      <point x="299" y="805"/>
      <point x="297" y="813" type="curve" smooth="yes"/>
      <point x="269" y="942" type="line" smooth="yes"/>
      <point x="261" y="982"/>
      <point x="244" y="1006"/>
      <point x="229" y="1006" type="curve" smooth="yes"/>
      <point x="194" y="1006" type="line" smooth="yes"/>
      <point x="180" y="1006"/>
      <point x="168" y="972"/>
      <point x="168" y="929" type="curve" smooth="yes"/>
      <point x="168" y="76" type="line" smooth="yes"/>
      <point x="168" y="33"/>
      <point x="180" y="0"/>
    </contour>
  </outline>
</glyph>
<glyph name="o" format="1">
  <advance width="923"/>
  <unicode hex="006F"/>
  <outline>
    <contour>
      <point x="462" y="224" type="curve" smooth="yes"/>
      <point x="394" y="224"/>
      <point x="356" y="314"/>
      <point x="356" y="508" type="curve" smooth="yes"/>
      <point x="356" y="671"/>
      <point x="394" y="788"/>
      <point x="462" y="788" type="curve" smooth="yes"/>
      <point x="530" y="788"/>
      <point x="567" y="671"/>
      <point x="567" y="508" type="curve" smooth="yes"/>
      <point x="567" y="314"/>
      <point x="528" y="224"/>
    </contour>
    <contour>
      <point x="462" y="-41" type="curve" smooth="yes"/>
      <point x="592" y="-41"/>
      <point x="765" y="7"/>
      <point x="765" y="508" type="curve" smooth="yes"/>
      <point x="765" y="999"/>
      <point x="580" y="1053"/>
      <point x="462" y="1053" type="curve" smooth="yes"/>
      <point x="343" y="1053"/>
      <point x="159" y="999"/>
      <point x="159" y="508" type="curve" smooth="yes"/>
      <point x="159" y="7"/>
      <point x="332" y="-41"/>
    </contour>
  </outline>
</glyph>
<glyph name="p" format="1">
  <advance width="938"/>
  <unicode hex="0070"/>
  <outline>
    <contour>
      <point x="192" y="-308" type="curve" smooth="yes"/>
      <point x="343" y="-308" type="line" smooth="yes"/>
      <point x="357" y="-308"/>
      <point x="367" y="-278"/>
      <point x="367" y="-235" type="curve" smooth="yes"/>
      <point x="367" y="53" type="line" smooth="yes"/>
      <point x="367" y="65"/>
      <point x="371" y="73"/>
      <point x="374" y="73" type="curve" smooth="yes"/>
      <point x="375" y="73"/>
      <point x="376" y="71"/>
      <point x="377" y="69" type="curve" smooth="yes"/>
      <point x="416" y="-5"/>
      <point x="475" y="-41"/>
      <point x="537" y="-41" type="curve" smooth="yes"/>
      <point x="654" y="-41"/>
      <point x="780" y="121"/>
      <point x="780" y="512" type="curve" smooth="yes"/>
      <point x="780" y="881"/>
      <point x="652" y="1053"/>
      <point x="523" y="1053" type="curve" smooth="yes"/>
      <point x="441" y="1053"/>
      <point x="357" y="971"/>
      <point x="312" y="810" type="curve"/>
      <point x="311" y="803"/>
      <point x="308" y="791"/>
      <point x="305" y="791" type="curve" smooth="yes"/>
      <point x="303" y="791"/>
      <point x="300" y="803"/>
      <point x="299" y="811" type="curve" smooth="yes"/>
      <point x="299" y="813"/>
      <point x="270" y="930"/>
      <point x="270" y="933" type="curve" smooth="yes"/>
      <point x="261" y="973"/>
      <point x="245" y="998"/>
      <point x="230" y="998" type="curve" smooth="yes"/>
      <point x="194" y="998" type="line" smooth="yes"/>
      <point x="180" y="998"/>
      <point x="169" y="965"/>
      <point x="169" y="922" type="curve" smooth="yes"/>
      <point x="169" y="-235" type="line" smooth="yes"/>
      <point x="169" y="-278"/>
      <point x="178" y="-308"/>
    </contour>
    <contour>
      <point x="473" y="223" type="curve" smooth="yes"/>
      <point x="403" y="223"/>
      <point x="367" y="355"/>
      <point x="367" y="497" type="curve" smooth="yes"/>
      <point x="367" y="638"/>
      <point x="403" y="770"/>
      <point x="472" y="770" type="curve" smooth="yes"/>
      <point x="538" y="770"/>
      <point x="573" y="637"/>
      <point x="573" y="497" type="curve" smooth="yes"/>
      <point x="573" y="352"/>
      <point x="537" y="223"/>
    </contour>
  </outline>
</glyph>
<glyph name="q" format="1">
  <advance width="939"/>
  <unicode hex="0071"/>
  <outline>
    <contour>
      <point x="596" y="-308" type="curve" smooth="yes"/>
      <point x="743" y="-308" type="line" smooth="yes"/>
      <point x="758" y="-308"/>
      <point x="769" y="-275"/>
      <point x="769" y="-232" type="curve" smooth="yes"/>
      <point x="769" y="922" type="line" smooth="yes"/>
      <point x="769" y="965"/>
      <point x="758" y="998"/>
      <point x="743" y="998" type="curve" smooth="yes"/>
      <point x="707" y="998" type="line" smooth="yes"/>
      <point x="692" y="998"/>
      <point x="676" y="973"/>
      <point x="667" y="934" type="curve" smooth="yes"/>
      <point x="667" y="931"/>
      <point x="639" y="813"/>
      <point x="639" y="811" type="curve"/>
      <point x="638" y="803"/>
      <point x="634" y="799"/>
      <point x="631" y="799" type="curve" smooth="yes"/>
      <point x="629" y="799"/>
      <point x="626" y="803"/>
      <point x="624" y="810" type="curve" smooth="yes"/>
      <point x="580" y="971"/>
      <point x="497" y="1053"/>
      <point x="413" y="1053" type="curve" smooth="yes"/>
      <point x="286" y="1053"/>
      <point x="157" y="881"/>
      <point x="157" y="512" type="curve" smooth="yes"/>
      <point x="157" y="121"/>
      <point x="283" y="-41"/>
      <point x="401" y="-41" type="curve" smooth="yes"/>
      <point x="462" y="-41"/>
      <point x="522" y="-5"/>
      <point x="560" y="69" type="curve" smooth="yes"/>
      <point x="561" y="71"/>
      <point x="563" y="73"/>
      <point x="564" y="73" type="curve" smooth="yes"/>
      <point x="568" y="73"/>
      <point x="570" y="65"/>
      <point x="570" y="53" type="curve" smooth="yes"/>
      <point x="570" y="-232" type="line" smooth="yes"/>
      <point x="570" y="-275"/>
      <point x="581" y="-308"/>
    </contour>
    <contour>
      <point x="465" y="223" type="curve" smooth="yes"/>
      <point x="401" y="223"/>
      <point x="365" y="352"/>
      <point x="365" y="497" type="curve" smooth="yes"/>
      <point x="365" y="637"/>
      <point x="401" y="770"/>
      <point x="466" y="770" type="curve" smooth="yes"/>
      <point x="535" y="770"/>
      <point x="570" y="638"/>
      <point x="570" y="497" type="curve" smooth="yes"/>
      <point x="570" y="355"/>
      <point x="534" y="223"/>
    </contour>
  </outline>
</glyph>
<glyph name="s" format="1">
  <advance width="869"/>
  <unicode hex="0073"/>
  <outline>
    <contour>
      <point x="426" y="-41" type="curve" smooth="yes"/>
      <point x="579" y="-41"/>
      <point x="709" y="24"/>
      <point x="709" y="307" type="curve" smooth="yes"/>
      <point x="709" y="637"/>
      <point x="569" y="647"/>
      <point x="462" y="666" type="curve" smooth="yes"/>
      <point x="377" y="680"/>
      <point x="331" y="679"/>
      <point x="331" y="731" type="curve" smooth="yes"/>
      <point x="331" y="767"/>
      <point x="350" y="794"/>
      <point x="431" y="794" type="curve" smooth="yes"/>
      <point x="515" y="794"/>
      <point x="566" y="773"/>
      <point x="613" y="727" type="curve" smooth="yes"/>
      <point x="628" y="712"/>
      <point x="643" y="729"/>
      <point x="650" y="768" type="curve" smooth="yes"/>
      <point x="667" y="866" type="line" smooth="yes"/>
      <point x="672" y="901"/>
      <point x="666" y="948"/>
      <point x="653" y="963" type="curve" smooth="yes"/>
      <point x="578" y="1050"/>
      <point x="501" y="1053"/>
      <point x="419" y="1053" type="curve" smooth="yes"/>
      <point x="334" y="1053"/>
      <point x="166" y="1019"/>
      <point x="166" y="700" type="curve" smooth="yes"/>
      <point x="166" y="425"/>
      <point x="316" y="402"/>
      <point x="420" y="381" type="curve" smooth="yes"/>
      <point x="515" y="362"/>
      <point x="532" y="360"/>
      <point x="532" y="293" type="curve" smooth="yes"/>
      <point x="532" y="245"/>
      <point x="509" y="227"/>
      <point x="460" y="227" type="curve" smooth="yes"/>
      <point x="376" y="227"/>
      <point x="300" y="249"/>
      <point x="224" y="315" type="curve" smooth="yes"/>
      <point x="209" y="328"/>
      <point x="194" y="308"/>
      <point x="188" y="267" type="curve" smooth="yes"/>
      <point x="169" y="155" type="line" smooth="yes"/>
      <point x="163" y="121"/>
      <point x="169" y="72"/>
      <point x="181" y="59" type="curve" smooth="yes"/>
      <point x="250" y="-18"/>
      <point x="356" y="-41"/>
    </contour>
  </outline>
</glyph>
<glyph name="y" format="1">
  <advance width="874"/>
  <unicode hex="0079"/>
  <outline>
    <contour>
      <point x="334" y="-694" type="curve" smooth="yes"/>
      <point x="440" y="-693"/>
      <point x="487" y="-539"/>
      <point x="528" y="-277" type="curve" smooth="yes"/>
      <point x="715" y="936" type="line" smooth="yes"/>
      <point x="716" y="943"/>
      <point x="716" y="950"/>
      <point x="716" y="957" type="curve" smooth="yes"/>
      <point x="716" y="983"/>
      <point x="710" y="1006"/>
      <point x="700" y="1006" type="curve" smooth="yes"/>
      <point x="577" y="1006" type="line" smooth="yes"/>
      <point x="561" y="1006"/>
      <point x="547" y="977"/>
      <point x="542" y="934" type="curve" smooth="yes"/>
      <point x="474" y="394" type="line"/>
      <point x="474" y="387"/>
      <point x="472" y="383"/>
      <point x="470" y="383" type="curve" smooth="yes"/>
      <point x="468" y="383"/>
      <point x="466" y="386"/>
      <point x="465" y="392" type="curve" smooth="yes"/>
      <point x="372" y="937" type="line" smooth="yes"/>
      <point x="365" y="979"/>
      <point x="349" y="1006"/>
      <point x="333" y="1006" type="curve" smooth="yes"/>
      <point x="167" y="1006" type="line" smooth="yes"/>
      <point x="159" y="1006"/>
      <point x="152" y="985"/>
      <point x="152" y="962" type="curve" smooth="yes"/>
      <point x="152" y="955"/>
      <point x="153" y="947"/>
      <point x="154" y="940" type="curve"/>
      <point x="372" y="-134" type="line" smooth="yes"/>
      <point x="379" y="-173"/>
      <point x="392" y="-232"/>
      <point x="392" y="-263" type="curve" smooth="yes"/>
      <point x="392" y="-376"/>
      <point x="358" y="-398"/>
      <point x="339" y="-398" type="curve" smooth="yes"/>
      <point x="331" y="-398" type="line" smooth="yes"/>
      <point x="320" y="-398"/>
      <point x="287" y="-387"/>
      <point x="268" y="-369" type="curve" smooth="yes"/>
      <point x="266" y="-367"/>
      <point x="264" y="-365"/>
      <point x="261" y="-365" type="curve" smooth="yes"/>
      <point x="254" y="-365"/>
      <point x="245" y="-377"/>
      <point x="241" y="-400" type="curve" smooth="yes"/>
      <point x="222" y="-532" type="line" smooth="yes"/>
      <point x="220" y="-544"/>
      <point x="219" y="-555"/>
      <point x="219" y="-567" type="curve" smooth="yes"/>
      <point x="219" y="-595"/>
      <point x="223" y="-619"/>
      <point x="229" y="-630" type="curve" smooth="yes"/>
      <point x="257" y="-675"/>
      <point x="294" y="-694"/>
    </contour>
  </outline>
</glyph>
<glyph name="z" format="1">
  <advance width="809"/>
  <unicode hex="007A"/>
  <outline>
    <contour>
      <point x="181" y="0" type="curve" smooth="yes"/>
      <point x="630" y="0" type="line" smooth="yes"/>
      <point x="636" y="0"/>
      <point x="643" y="17"/>
      <point x="643" y="37" type="curve" smooth="yes"/>
      <point x="643" y="229" type="line" smooth="yes"/>
      <point x="643" y="249"/>
      <point x="636" y="266"/>
      <point x="630" y="266" type="curve" smooth="yes"/>
      <point x="433" y="266" type="line"/>
      <point x="619" y="714" type="line" smooth="yes"/>
      <point x="625" y="729"/>
      <point x="629" y="752"/>
      <point x="629" y="775" type="curve" smooth="yes"/>
      <point x="629" y="969" type="line" smooth="yes"/>
      <point x="629" y="989"/>
      <point x="623" y="1006"/>
      <point x="617" y="1006" type="curve" smooth="yes"/>
      <point x="181" y="1006" type="line" smooth="yes"/>
      <point x="175" y="1006"/>
      <point x="169" y="989"/>
      <point x="169" y="969" type="curve" smooth="yes"/>
      <point x="169" y="776" type="line" smooth="yes"/>
      <point x="169" y="756"/>
      <point x="175" y="739"/>
      <point x="181" y="739" type="curve" smooth="yes"/>
      <point x="370" y="739" type="line"/>
      <point x="177" y="289" type="line" smooth="yes"/>
      <point x="171" y="275"/>
      <point x="167" y="252"/>
      <point x="167" y="229" type="curve" smooth="yes"/>
      <point x="167" y="37" type="line" smooth="yes"/>
      <point x="167" y="17"/>
      <point x="174" y="0"/>
    </contour>
  </outline>
</glyph>
<glyph name="braceleft" format="1">
  <advance width="639"/>
  <unicode hex="007B"/>
  <outline>
    <contour>
      <point x="362" y="-123" type="curve" smooth="yes"/>
      <point x="388" y="-123"/>
      <point x="426" y="-123"/>
      <point x="455" y="-123" type="curve" smooth="yes"/>
      <point x="469" y="-123"/>
      <point x="481" y="-88"/>
      <point x="481" y="-46" type="curve" smooth="yes"/>
      <point x="481" y="64" type="line" smooth="yes"/>
      <point x="481" y="116"/>
      <point x="472" y="147"/>
      <point x="455" y="158" type="curve" smooth="yes"/>
      <point x="367" y="214"/>
      <point x="442" y="572"/>
      <point x="360" y="695" type="curve" smooth="yes"/>
      <point x="355" y="702"/>
      <point x="355" y="718"/>
      <point x="360" y="725" type="curve" smooth="yes"/>
      <point x="442" y="848"/>
      <point x="367" y="1206"/>
      <point x="455" y="1262" type="curve" smooth="yes"/>
      <point x="472" y="1273"/>
      <point x="481" y="1304"/>
      <point x="481" y="1356" type="curve" smooth="yes"/>
      <point x="481" y="1466" type="line" smooth="yes"/>
      <point x="481" y="1508"/>
      <point x="469" y="1543"/>
      <point x="455" y="1543" type="curve" smooth="yes"/>
      <point x="426" y="1543"/>
      <point x="388" y="1543"/>
      <point x="362" y="1543" type="curve" smooth="yes"/>
      <point x="199" y="1543"/>
      <point x="279" y="942"/>
      <point x="179" y="857" type="curve" smooth="yes"/>
      <point x="160" y="841"/>
      <point x="153" y="812"/>
      <point x="153" y="756" type="curve" smooth="yes"/>
      <point x="153" y="664" type="line" smooth="yes"/>
      <point x="153" y="608"/>
      <point x="160" y="579"/>
      <point x="179" y="563" type="curve" smooth="yes"/>
      <point x="279" y="478"/>
      <point x="199" y="-123"/>
    </contour>
  </outline>
</glyph>
<glyph name="bar" format="1">
  <advance width="451"/>
  <unicode hex="007C"/>
  <outline>
    <contour>
      <point x="199" y="-150" type="curve" smooth="yes"/>
      <point x="251" y="-150" type="line" smooth="yes"/>
      <point x="266" y="-150"/>
      <point x="278" y="-117"/>
      <point x="278" y="-74" type="curve" smooth="yes"/>
      <point x="278" y="1479" type="line" smooth="yes"/>
      <point x="278" y="1522"/>
      <point x="266" y="1555"/>
      <point x="251" y="1555" type="curve" smooth="yes"/>
      <point x="199" y="1555" type="line" smooth="yes"/>
      <point x="184" y="1555"/>
      <point x="172" y="1522"/>
      <point x="172" y="1479" type="curve" smooth="yes"/>
      <point x="172" y="-74" type="line" smooth="yes"/>
      <point x="172" y="-117"/>
      <point x="184" y="-150"/>
    </contour>
  </outline>
</glyph>
<glyph name="dieresis" format="1">
  <advance width="244"/>
  <unicode hex="00A8"/>
  <outline>
    <contour>
      <point x="31" y="0" type="curve" smooth="yes"/>
      <point x="81" y="0" type="line" smooth="yes"/>
      <point x="96" y="0"/>
      <point x="108" y="34"/>
      <point x="108" y="77" type="curve" smooth="yes"/>
      <point x="108" y="210" type="line" smooth="yes"/>
      <point x="108" y="253"/>
      <point x="96" y="287"/>
      <point x="81" y="287" type="curve" smooth="yes"/>
      <point x="31" y="287" type="line" smooth="yes"/>
      <point x="16" y="287"/>
      <point x="4" y="253"/>
      <point x="4" y="210" type="curve" smooth="yes"/>
      <point x="4" y="77" type="line" smooth="yes"/>
      <point x="4" y="34"/>
      <point x="16" y="0"/>
    </contour>
    <contour>
      <point x="260" y="0" type="curve" smooth="yes"/>
      <point x="310" y="0" type="line" smooth="yes"/>
      <point x="325" y="0"/>
      <point x="337" y="34"/>
      <point x="337" y="77" type="curve" smooth="yes"/>
      <point x="337" y="210" type="line" smooth="yes"/>
      <point x="337" y="253"/>
      <point x="325" y="287"/>
      <point x="310" y="287" type="curve" smooth="yes"/>
      <point x="260" y="287" type="line" smooth="yes"/>
      <point x="245" y="287"/>
      <point x="233" y="253"/>
      <point x="233" y="210" type="curve" smooth="yes"/>
      <point x="233" y="77" type="line" smooth="yes"/>
      <point x="233" y="34"/>
      <point x="245" y="0"/>
    </contour>
  </outline>
</glyph>
<glyph name="cedilla" format="1">
  <advance width="246"/>
  <unicode hex="00B8"/>
  <outline>
    <contour>
      <point x="139" y="-642" type="curve" smooth="yes"/>
      <point x="188" y="-642"/>
      <point x="226" y="-571"/>
      <point x="226" y="-393" type="curve" smooth="yes"/>
      <point x="226" y="-282"/>
      <point x="197" y="-156"/>
      <point x="160" y="-156" type="curve" smooth="yes"/>
      <point x="153" y="-156"/>
      <point x="131" y="-156"/>
      <point x="125" y="-156" type="curve"/>
      <point x="120" y="-156"/>
      <point x="119" y="-163"/>
      <point x="119" y="-173" type="curve" smooth="yes"/>
      <point x="119" y="-187"/>
      <point x="119" y="-234"/>
      <point x="119" y="-244" type="curve" smooth="yes"/>
      <point x="119" y="-255"/>
      <point x="125" y="-254"/>
      <point x="125" y="-254" type="curve" smooth="yes"/>
      <point x="128" y="-254"/>
      <point x="134" y="-254"/>
      <point x="138" y="-254" type="curve" smooth="yes"/>
      <point x="155" y="-254"/>
      <point x="166" y="-331"/>
      <point x="166" y="-407" type="curve" smooth="yes"/>
      <point x="166" y="-497"/>
      <point x="157" y="-529"/>
      <point x="141" y="-529" type="curve" smooth="yes"/>
      <point x="124" y="-529"/>
      <point x="116" y="-491"/>
      <point x="116" y="-450" type="curve" smooth="yes"/>
      <point x="116" y="-433"/>
      <point x="116" y="-427"/>
      <point x="117" y="-409" type="curve" smooth="yes"/>
      <point x="119" y="-389"/>
      <point x="115" y="-373"/>
      <point x="107" y="-373" type="curve" smooth="yes"/>
      <point x="79" y="-373" type="line" smooth="yes"/>
      <point x="73" y="-373"/>
      <point x="66" y="-389"/>
      <point x="65" y="-408" type="curve" smooth="yes"/>
      <point x="64" y="-427"/>
      <point x="63" y="-446"/>
      <point x="63" y="-464" type="curve" smooth="yes"/>
      <point x="63" y="-572"/>
      <point x="100" y="-642"/>
    </contour>
  </outline>
</glyph>
<glyph name="OE" format="1">
  <advance width="1488"/>
  <unicode hex="0152"/>
  <outline>
    <contour>
      <point x="612" y="-1" type="curve" smooth="yes"/>
      <point x="637" y="-1"/>
      <point x="615" y="0"/>
      <point x="1298" y="0" type="curve" smooth="yes"/>
      <point x="1313" y="0"/>
      <point x="1324" y="34"/>
      <point x="1324" y="77" type="curve" smooth="yes"/>
      <point x="1324" y="300" type="line" smooth="yes"/>
      <point x="1324" y="343"/>
      <point x="1313" y="377"/>
      <point x="1298" y="377" type="curve" smooth="yes"/>
      <point x="965" y="377" type="line" smooth="yes"/>
      <point x="958" y="377"/>
      <point x="953" y="394"/>
      <point x="953" y="414" type="curve" smooth="yes"/>
      <point x="953" y="541" type="line" smooth="yes"/>
      <point x="953" y="561"/>
      <point x="958" y="578"/>
      <point x="965" y="578" type="curve" smooth="yes"/>
      <point x="1206" y="578" type="line" smooth="yes"/>
      <point x="1221" y="578"/>
      <point x="1233" y="612"/>
      <point x="1233" y="655" type="curve" smooth="yes"/>
      <point x="1233" y="804" type="line" smooth="yes"/>
      <point x="1233" y="847"/>
      <point x="1221" y="881"/>
      <point x="1206" y="881" type="curve" smooth="yes"/>
      <point x="965" y="881" type="line" smooth="yes"/>
      <point x="958" y="881"/>
      <point x="953" y="898"/>
      <point x="953" y="918" type="curve" smooth="yes"/>
      <point x="953" y="1018" type="line" smooth="yes"/>
      <point x="953" y="1038"/>
      <point x="958" y="1055"/>
      <point x="965" y="1055" type="curve" smooth="yes"/>
      <point x="1271" y="1055" type="line" smooth="yes"/>
      <point x="1287" y="1055"/>
      <point x="1298" y="1089"/>
      <point x="1298" y="1132" type="curve" smooth="yes"/>
      <point x="1298" y="1361" type="line" smooth="yes"/>
      <point x="1298" y="1403"/>
      <point x="1286" y="1438"/>
      <point x="1271" y="1438" type="curve" smooth="yes"/>
      <point x="659" y="1438"/>
      <point x="612" y="1438"/>
      <point x="583" y="1438" type="curve" smooth="yes"/>
      <point x="402" y="1438"/>
      <point x="159" y="1291"/>
      <point x="159" y="721" type="curve" smooth="yes"/>
      <point x="159" y="70"/>
      <point x="429" y="-1"/>
    </contour>
    <contour>
      <point x="603" y="376" type="curve" smooth="yes"/>
      <point x="520" y="376"/>
      <point x="463" y="449"/>
      <point x="463" y="697" type="curve" smooth="yes"/>
      <point x="457" y="945"/>
      <point x="505" y="1022"/>
      <point x="588" y="1041" type="curve" smooth="yes"/>
      <point x="608" y="1060"/>
      <point x="643" y="1065"/>
      <point x="665" y="1065" type="curve" smooth="yes"/>
      <point x="671" y="1065"/>
      <point x="681" y="1049"/>
      <point x="681" y="1031" type="curve" smooth="yes"/>
      <point x="681" y="1031"/>
      <point x="682" y="457"/>
      <point x="682" y="456" type="curve" smooth="yes"/>
      <point x="682" y="437"/>
      <point x="677" y="379"/>
      <point x="670" y="379" type="curve" smooth="yes"/>
      <point x="655" y="377"/>
      <point x="624" y="376"/>
    </contour>
  </outline>
</glyph>
<glyph name="circumflex" format="1">
  <advance width="324"/>
  <unicode hex="02C6"/>
  <outline>
    <contour>
      <point x="42" y="1217" type="curve" smooth="yes"/>
      <point x="61" y="1217" type="line" smooth="yes"/>
      <point x="78" y="1217"/>
      <point x="92" y="1239"/>
      <point x="107" y="1274" type="curve" smooth="yes"/>
      <point x="148" y="1368" type="line" smooth="yes"/>
      <point x="152" y="1376"/>
      <point x="156" y="1379"/>
      <point x="160" y="1379" type="curve" smooth="yes"/>
      <point x="164" y="1379"/>
      <point x="167" y="1376"/>
      <point x="171" y="1368" type="curve" smooth="yes"/>
      <point x="212" y="1274" type="line" smooth="yes"/>
      <point x="226" y="1239"/>
      <point x="241" y="1217"/>
      <point x="260" y="1217" type="curve" smooth="yes"/>
      <point x="277" y="1217" type="line" smooth="yes"/>
      <point x="284" y="1217"/>
      <point x="288" y="1239"/>
      <point x="288" y="1262" type="curve" smooth="yes"/>
      <point x="288" y="1274"/>
      <point x="286" y="1284"/>
      <point x="284" y="1295" type="curve" smooth="yes"/>
      <point x="225" y="1520" type="line" smooth="yes"/>
      <point x="212" y="1569"/>
      <point x="193" y="1598"/>
      <point x="175" y="1598" type="curve" smooth="yes"/>
      <point x="144" y="1598" type="line" smooth="yes"/>
      <point x="127" y="1598"/>
      <point x="108" y="1569"/>
      <point x="94" y="1520" type="curve" smooth="yes"/>
      <point x="34" y="1295" type="line" smooth="yes"/>
      <point x="32" y="1284"/>
      <point x="31" y="1274"/>
      <point x="31" y="1262" type="curve" smooth="yes"/>
      <point x="31" y="1239"/>
      <point x="35" y="1217"/>
    </contour>
  </outline>
</glyph>
<glyph name="hungarumlaut" format="1">
  <advance width="599"/>
  <unicode hex="02DD"/>
  <outline>
    <contour>
      <point x="182" y="1171" type="curve" smooth="yes"/>
      <point x="194" y="1171"/>
      <point x="199" y="1171"/>
      <point x="217" y="1171" type="curve" smooth="yes"/>
      <point x="231" y="1171"/>
      <point x="232" y="1192"/>
      <point x="236" y="1210" type="curve" smooth="yes"/>
      <point x="312" y="1555" type="line" smooth="yes"/>
      <point x="314" y="1567"/>
      <point x="316" y="1581"/>
      <point x="316" y="1592" type="curve" smooth="yes"/>
      <point x="316" y="1608"/>
      <point x="313" y="1620"/>
      <point x="307" y="1620" type="curve" smooth="yes"/>
      <point x="215" y="1620" type="line" smooth="yes"/>
      <point x="200" y="1620"/>
      <point x="192" y="1608"/>
      <point x="189" y="1565" type="curve" smooth="yes"/>
      <point x="169" y="1238" type="line" smooth="yes"/>
      <point x="168" y="1224"/>
      <point x="167" y="1212"/>
      <point x="167" y="1203" type="curve" smooth="yes"/>
      <point x="167" y="1176"/>
      <point x="172" y="1171"/>
    </contour>
    <contour>
      <point x="355" y="1171" type="curve" smooth="yes"/>
      <point x="367" y="1171"/>
      <point x="372" y="1171"/>
      <point x="391" y="1171" type="curve" smooth="yes"/>
      <point x="403" y="1171"/>
      <point x="406" y="1192"/>
      <point x="410" y="1210" type="curve" smooth="yes"/>
      <point x="485" y="1555" type="line" smooth="yes"/>
      <point x="487" y="1567"/>
      <point x="490" y="1581"/>
      <point x="490" y="1592" type="curve" smooth="yes"/>
      <point x="490" y="1608"/>
      <point x="486" y="1620"/>
      <point x="479" y="1620" type="curve" smooth="yes"/>
      <point x="388" y="1620" type="line" smooth="yes"/>
      <point x="373" y="1620"/>
      <point x="366" y="1608"/>
      <point x="363" y="1565" type="curve" smooth="yes"/>
      <point x="342" y="1238" type="line" smooth="yes"/>
      <point x="341" y="1224"/>
      <point x="341" y="1212"/>
      <point x="341" y="1203" type="curve" smooth="yes"/>
      <point x="341" y="1176"/>
      <point x="345" y="1171"/>
    </contour>
  </outline>
</glyph>
<glyph name="quoteleft" format="1">
  <advance width="461"/>
  <unicode hex="2018"/>
  <outline>
    <contour>
      <point x="183" y="790" type="curve" smooth="yes"/>
      <point x="274" y="790" type="line" smooth="yes"/>
      <point x="289" y="790"/>
      <point x="295" y="823"/>
      <point x="295" y="866" type="curve" smooth="yes"/>
      <point x="295" y="1069" type="line" smooth="yes"/>
      <point x="295" y="1107"/>
      <point x="287" y="1138"/>
      <point x="274" y="1138" type="curve" smooth="yes"/>
      <point x="248" y="1138" type="line" smooth="yes"/>
      <point x="244" y="1138"/>
      <point x="243" y="1149"/>
      <point x="243" y="1165" type="curve" smooth="yes"/>
      <point x="243" y="1189"/>
      <point x="247" y="1266"/>
      <point x="270" y="1309" type="curve" smooth="yes"/>
      <point x="285" y="1336"/>
      <point x="295" y="1330"/>
      <point x="295" y="1384" type="curve" smooth="yes"/>
      <point x="295" y="1432" type="line" smooth="yes"/>
      <point x="295" y="1468"/>
      <point x="281" y="1483"/>
      <point x="269" y="1477" type="curve" smooth="yes"/>
      <point x="222" y="1454"/>
      <point x="161" y="1345"/>
      <point x="161" y="1108" type="curve" smooth="yes"/>
      <point x="161" y="867" type="line" smooth="yes"/>
      <point x="161" y="824"/>
      <point x="168" y="790"/>
    </contour>
  </outline>
</glyph>
<glyph name="fraction" format="1">
  <advance width="697"/>
  <unicode hex="2044"/>
  <outline>
    <contour>
      <point x="139" y="-205" type="curve" smooth="yes"/>
      <point x="248" y="-207" type="line" smooth="yes"/>
      <point x="255" y="-207"/>
      <point x="263" y="-194"/>
      <point x="266" y="-174" type="curve" smooth="yes"/>
      <point x="567" y="1614" type="line" smooth="yes"/>
      <point x="570" y="1629"/>
      <point x="566" y="1647"/>
      <point x="560" y="1647" type="curve" smooth="yes"/>
      <point x="452" y="1647" type="line" smooth="yes"/>
      <point x="445" y="1647"/>
      <point x="437" y="1634"/>
      <point x="434" y="1614" type="curve" smooth="yes"/>
      <point x="132" y="-172" type="line" smooth="yes"/>
      <point x="130" y="-187"/>
      <point x="134" y="-205"/>
    </contour>
  </outline>
</glyph>
